<?xml version="1.0" encoding="UTF-8"?>
<!-- Created with Inkscape (http://www.inkscape.org/) -->
<svg width="1280" height="7972.7" version="1.1" viewBox="0 0 338.67 2109.4" xmlns="http://www.w3.org/2000/svg">
 <defs>
  <clipPath id="clipPath924">
   <path d="m0 1024h1280v-1024h-1280z"/>
  </clipPath>
 </defs>
 <g transform="translate(-169.33 34.709)">
  <g transform="matrix(.35278 0 0 -.35278 180.81 458.69)">
   <g transform="translate(-192.53 276.22)">
    <g transform="translate(0,175.5)">
     <g transform="translate(187.5 46.5)">
      <g transform="matrix(.46964 0 0 .46964 97.302 622.02)" stroke="#ffcbc4">
       <path d="m-1093.9-435.35 1089.3 450.5c111.68 46.189 49.985 228.84 98.119 250.65 59.161 26.805 153.71 12.629 273.09 59.428 12.126 4.754 23.483 10.076 35.883 16.503 75.238 39.001 109.23 77.428 212.06 109.02 47.47 14.585 66.924 14.599 135.23 37.644 53.77 18.142 98.228 33.141 150.67 62.227 72.521 40.224 72.705 58.797 123.43 71.385 49.729 12.341 67.067-1.163 101.97 18.714 36.242 20.642 43.704 50.101 73.966 50.903 22.226 0.59 34.985-14.854 49.245-8.484 11.915 5.323 14.971 21.448 15.579 34.934 20.842 17.229 55.623 40.352 104.34 50.869 26.867 5.8 61.128 13.195 91.835-1.341 28.367-13.43 23.553-31.304 52.124-55.378 45.462-38.305 86.263-17.161 111.79-45.308 38.473-42.42-28.568-118.7 4.868-147.63 10.859-9.394 34.46-15.645 91.885 2.611 12.646-65.756 17.556-118.11 19.673-154.63 2.833-48.856 0.851-72.558 22.193-94.6 21.425-22.128 51.313-27.047 59.597-55.216 4.925-16.745-3.033-23.861 5.549-35.861 13.15-18.387 39.284-12.092 53.045-27.869 14.161-16.236 3.038-41.877-0.792-54.429-18.256-59.822 39.688-115.48 81.367-188.27 37.584-65.637 53.474-82.599 67.202-144.49 9.013-40.632 131.38-52.711 235.1-99.828 331.16-94.382 555.74-5561.9 469.55-5599.6-271.36-3895.2-5941.8-3353.8-4027.6 4236.7" fill="#ffcbc4" stroke="#ffcbc4"/>
      </g>
      <g transform="matrix(.46964 0 0 .46964 339.43 483.39)" fill="#e52312">
       <g clip-path="url(#clipPath924)" fill="#e52312">
        <g transform="translate(795.16 764.39)">
         <path d="m0 0c5.5 7.866 13.651 14.91 23.341 17.597 6.081 1.368 11.887 2.401 17.629 4.739 5.395 2.101 10.896 4.663 15.871 7.535 3.828 2.213 7.583 5.127 11.655 7.505 4.813 2.791 9.671 5.034 15.226 6.502 9.119 2.282 17.18 2.274 25.309 6.317 8.295 3.778 15.398 9.728 21.794 16.301 3.456 0.34 17.26 1.892 20.997 2.272 0 0-12.706-9.253-12.706-9.253l4.839 13.871 1.419 4.067 4.377 3.075c6.479 4.567 13.268 8.83 20.185 12.713 17.676 9.984 33.607 19.925 54.862 12.522 17.932-6.043 32.943-21.879 36.095-40.783 1.132-6.53 1.043-13.447 1.111-19.413-0.013-10.839 0.107-22.677-0.035-33.452-0.107-13.742-0.79-28.854 1.435-42.126 0.979-6.138 3.223-13.93 3.698-20.579 0.727-12.289-1.652-23.947-5.642-35.352-1.537-4.302-3.55-8.28-5.029-12.508-1.335-3.704-1.692-7.512-1.488-11.493 1.789-24.668 18.971-44.505 42.719-51.575-15.6-0.565-32.026 6.02-42.997 17.38-11.966 12.101-20.333 29.333-18.9 46.915 0.43 4.457 1.523 8.503 2.598 12.714 1.78 6.838 2.734 12.725 2.951 19.605 0.052 3.272-0.012 6.382-0.366 9.114-0.942 6.508-3.809 12.57-5.513 19.665-3.12 12.036-4.224 23.991-4.729 35.955-0.714 14.639-1.33 30.511-1.79 45.161-0.117 3.754-0.184 7.369-0.431 10.328-0.309 3.453-0.646 5.997-2.31 8.839-3.199 5.281-8.828 9.693-14.899 10.868-2.716 0.568-4.959-0.028-7.785-1.08-6.688-2.522-14.24-6.592-21.002-9.923-1.442-0.73-5.468-2.859-6.951-3.662-3.069-1.67-6.096-3.416-9.083-5.233l5.795 7.142c-2.413-5.496-7.523-17.175-9.886-22.561l-8.716-0.148-15.66-0.266 8.35 3.462c-12.684-10.397-28.627-17.748-45.21-18.846-4.428-0.298-9.456-3e-3 -13.296-0.419-6.793-0.675-13.279-3.446-19.572-6.362-10.958-4.436-22.443-7.112-34.283-7.568-3.129-0.129-6.358 0.249-9.335 0.193-9.015-0.243-17.127-4.411-24.642-9.755" fill="#e52312"/>
        </g>
        <g transform="translate(1066.5 814.65)">
         <path d="m0 0c1.316 3.84 5.871 6.223 9.739 4.113 5.521-3.231 6.591-10.108 7.891-15.564 1.471-7.812 2.309-15.781 3.004-23.619 0-1e-3 0.41-5.829 0.41-5.829 0.136-1.854 0.302-3.636 0.602-4.701 0.316-1.145 0.57-1.071 1.021-1.62 2.993-3.491 7.313-5.611 11.423-3.308 0-1e-3 10.067 4.702 10.067 4.702 5.63-12.612 11.477-26.313 15.018-39.611 3.664-13.479 6.139-26.964 8.488-40.648 1.196-6.586 2.238-15.425 3.482-20.929 1.062-1.467 1.684-1.912 3.873-3.291 1.494-0.934 4.1-2.259 7.292-4.734 8.194-6.171 13.421-17.454 12.621-27.592-0.023-2.118-0.258-1.791 0.222-3.185 0.338-0.759 0.466-1.235 0.947-1.74 0.544-0.569 2.613-2.198 3.194-2.703 7.047-5.696 11.944-14.885 13.048-23.882 0.481-4.931 0.974-8.377 2.713-12.908 1.328-3.777 3.35-7.334 5.22-10.897 6.314-13.25 10.016-26.803 13.826-40.487 10.339-39.318 17.947-79.284 24.114-119.37 2.528-13.085 7.716-25.158 11.071-38.273 2.354-8.796 3.538-17.941 3.456-27.011-3.653 20.307-14.74 37.087-23.017 55.721-2.827 6.285-4.502 13.389-6.521 19.788-10.264 33.494-21.077 68.758-32.816 101.7-5.194 14.118-10.194 28.153-18.223 40.537-3.411 6.049-6.175 12.362-7.866 19.199-0.766 2.744-0.979 6.379-1.716 8.732-0.751 1.56-1.087 2.328-2.735 3.541-2.376 1.779-4.689 3.567-6.737 5.766-5.432 5.985-8.87 13.551-9.457 21.582-0.201 2.408 0.028 4.671-0.082 5.812-0.029-0.094 0.075-0.354 9e-3 -0.27-0.156 0.296-0.386 0.773-0.749 1.002-0.342 0.295-1.705 1.092-4.053 2.455-3.712 2.047-8.992 6.198-11.945 10.131-3.541 4.087-6.372 10.849-7.101 16.064-0.968 5.333-2.103 15.278-2.848 20.584-2.36 16.969-4.473 34.713-8.372 51.117-0.951 4.132-2.014 8.248-3.102 12.375l15.646-8.125c-2.98-0.669-6.113-0.966-9.26-0.771-14.404 0.789-27.369 12.724-28.985 27.102-0.355 5.155 0.952 9.874 1.615 14.595 1.147 7.05 2.278 15.233 2.879 22.26 0.148 3.583 0.611 7.788-0.959 10.811-0.166 0.249-0.347 0.483-0.898 0.712-1.506 0.448-3.566 0.524-5.449 0.659" fill="#e52312"/>
        </g>
       </g>
      </g>
     </g>
     <rect transform="scale(1,-1)" x="-620" y="2477.2" width="2520" height="106.55" stroke-width=".3405"/>
    </g>
   </g>
  </g>
 </g>
</svg>
