<?xml version="1.0" encoding="UTF-8"?>
<svg width="32" height="32" version="1.1" viewBox="0 0 32 32" xmlns="http://www.w3.org/2000/svg">
 <defs>
  <style>.a{fill:#e52312;stroke-width:0;}</style>
 </defs>
 <g transform="matrix(.034797 0 0 .034797 1.2192 6.5026)">
  <path class="a" d="m510.41 130.78c-37.14 22.19-81.47 30.89-123.24 37.46-30.09 4.78-58.7 13.41-85.14 28.58-3.87 2.25-10.19 5.56-14.3 7.71-4.26 2.19-10.32 5.54-14.63 7.46-24.01 11.84-50.04 22.71-75.43 31.04-56.47 18.07-115.97 27.08-175.23 26.33 69.44-25.07 140.94-43.9 209.43-71.21l14.33-6c2.58-1.2 15.28-7.06 17.56-8.17 4.99-2.55 12.12-6.35 17.11-8.94 48.2-27.93 80.03-33.14 134.32-36.89 31.83-2.59 63.11-6.47 95.21-7.37z"/>
  <path class="a" d="m383 136.16c5.5-7.87 13.65-14.91 23.34-17.6 6.08-1.37 11.89-2.4 17.63-4.74 5.4-2.1 10.9-4.66 15.87-7.54 3.83-2.21 7.58-5.13 11.65-7.5 4.81-2.79 9.67-5.03 15.23-6.5 9.12-2.28 17.18-2.27 25.31-6.32 8.29-3.78 15.4-9.73 21.79-16.3 3.46-0.34 17.26-1.89 21-2.27l-12.71 9.25 4.84-13.87 1.42-4.07 4.38-3.07c6.48-4.57 13.27-8.83 20.19-12.71 17.68-9.98 33.61-19.92 54.86-12.52 17.93 6.04 32.94 21.88 36.1 40.78 1.13 6.53 1.04 13.45 1.11 19.41-0.01 10.84 0.11 22.68-0.03 33.45-0.11 13.74-0.79 28.85 1.43 42.13 0.98 6.14 3.22 13.93 3.7 20.58 0.73 12.29-1.65 23.95-5.64 35.35-1.54 4.3-3.55 8.28-5.03 12.51-1.34 3.7-1.69 7.51-1.49 11.49 1.79 24.67 18.97 44.5 42.72 51.58-15.6 0.57-32.03-6.02-43-17.38-11.97-12.1-20.33-29.33-18.9-46.91 0.43-4.46 1.52-8.5 2.6-12.71 1.78-6.84 2.73-12.73 2.95-19.6 0.05-3.27-0.01-6.38-0.37-9.11-0.94-6.51-3.81-12.57-5.51-19.66-3.12-12.04-4.22-23.99-4.73-35.95-0.71-14.64-1.33-30.51-1.79-45.16-0.12-3.75-0.18-7.37-0.43-10.33-0.31-3.45-0.65-6-2.31-8.84-3.2-5.28-8.83-9.69-14.9-10.87-2.72-0.57-4.96 0.03-7.79 1.08-6.69 2.52-14.24 6.59-21 9.92-1.44 0.73-5.47 2.86-6.95 3.66-3.07 1.67-6.1 3.42-9.08 5.23 0 0 5.8-7.14 5.8-7.14-2.41 5.5-7.52 17.17-9.89 22.56l-24.38 0.42 8.35-3.46c-12.68 10.4-28.63 17.75-45.21 18.85-4.43 0.3-9.46 0-13.3 0.42-6.79 0.68-13.28 3.45-19.57 6.36-10.96 4.44-22.44 7.11-34.28 7.57-3.13 0.13-6.36-0.25-9.33-0.19-9.02 0.24-17.13 4.41-24.64 9.75z"/>
  <path class="a" d="m654.38 85.9c1.32-3.84 5.87-6.22 9.74-4.11 5.52 3.23 6.59 10.11 7.89 15.56 1.47 7.81 2.31 15.78 3 23.62 0 0 0.41 5.83 0.41 5.83 0.14 1.85 0.3 3.64 0.6 4.7 0.32 1.14 0.57 1.07 1.02 1.62 2.99 3.49 7.31 5.61 11.42 3.31l10.07-4.7c5.63 12.61 11.48 26.31 15.02 39.61 3.66 13.48 6.14 26.96 8.49 40.65 1.2 6.59 2.24 15.43 3.48 20.93 1.06 1.47 1.68 1.91 3.87 3.29 1.49 0.93 4.1 2.26 7.29 4.73 8.19 6.17 13.42 17.45 12.62 27.59-0.02 2.12-0.26 1.79 0.22 3.18 0.34 0.76 0.47 1.24 0.95 1.74 0.54 0.57 2.61 2.2 3.19 2.7 7.05 5.7 11.94 14.89 13.05 23.88 0.48 4.93 0.97 8.38 2.71 12.91 1.33 3.78 3.35 7.33 5.22 10.9 6.31 13.25 10.02 26.8 13.83 40.49 10.34 39.32 17.95 79.28 24.11 119.37 2.53 13.08 7.72 25.16 11.07 38.27 2.35 8.8 3.54 17.94 3.45 27.01-3.65-20.31-14.74-37.09-23.02-55.72-2.83-6.28-4.5-13.39-6.52-19.79-10.26-33.49-21.08-68.76-32.82-101.71-5.19-14.12-10.19-28.15-18.22-40.54-3.41-6.05-6.18-12.36-7.87-19.2-0.77-2.74-0.98-6.38-1.72-8.73-0.75-1.56-1.09-2.33-2.73-3.54-2.38-1.78-4.69-3.57-6.74-5.77-5.43-5.99-8.87-13.55-9.46-21.58-0.2-2.41 0.03-4.67-0.08-5.81-0.03 0.09 0.07 0.35 0 0.27-0.16-0.3-0.39-0.77-0.75-1-0.34-0.29-1.71-1.09-4.05-2.46-3.71-2.05-8.99-6.2-11.95-10.13-3.54-4.09-6.37-10.85-7.1-16.06-0.97-5.33-2.1-15.28-2.85-20.58-2.86-21.38-5.68-42.9-11.47-63.49 0 0 15.65 8.12 15.65 8.12-2.98 0.67-6.11 0.97-9.26 0.77-14.4-0.79-27.37-12.72-28.98-27.1-0.36-5.15 0.95-9.87 1.61-14.59 1.15-7.05 2.28-15.23 2.88-22.26 0.15-3.58 0.61-7.79-0.96-10.81-0.17-0.25-0.35-0.48-0.9-0.71-1.51-0.45-3.57-0.52-5.45-0.66z"/>
 </g>
</svg>
