<?xml version="1.0" encoding="UTF-8"?>
<svg width="841.89" height="441" version="1.1" viewBox="0 0 841.89 441" xmlns="http://www.w3.org/2000/svg">
 <defs>
  <style>.a{fill:#4a4a4a;stroke-width:0;}.b{fill:#e52312;stroke-width:0;}</style>
 </defs>
 <g transform="translate(0,-50)">
  <path class="b" d="m668.96 153.53c-14.53 8.51-30.82 13.43-47.28 16.45-10.57 2.05-21.28 3.34-31.5 6.01-11.35 2.88-21.94 7.62-32.11 13.54-13.41 7.24-27.87 13.85-42.2 19.03-26.1 9.53-53.78 14.55-81.47 16.04-5.54 0.25-11.07 0.42-16.65 0.27 5.2-2.02 10.46-3.72 15.68-5.49 30.83-10.2 62-19.24 92.14-31.17 6.87-2.8 15.23-6.53 21.71-10.06 7.44-3.89 14.74-8.3 22.71-11.33 15.73-6.72 33.21-8.3 49.96-9.49 15.84-1.34 33.1-3.38 49.01-3.81z"/>
  <path class="b" d="m603.37 156.3c2.84-4.03 7.03-7.68 12.02-9.06 1.64-0.45 3.22-0.61 4.78-1.06 5.84-1.6 11.23-4.2 16.21-7.7 2.9-1.95 6.24-3.75 10.1-4.78 3.31-0.9 6.44-1 9.39-1.88 5.72-1.65 10.69-5.38 14.8-9.71 3.58-0.44 7.3-0.84 10.87-1.2l-6.53 4.75c0.52-1.45 2.72-7.89 3.2-9.24 5.72-4.11 11.63-7.7 17.84-11 5.46-3.02 12.3-5.89 18.88-4.59 12.38 1.92 22.98 13.28 23.16 25.79 0.36 9.79 0.13 19.47 0.08 29.2-0.08 5.38-0.06 10.84 0.81 15.94 0.63 3.88 1.97 8.1 1.98 12.44 0.04 2.44-0.2 4.7-0.54 6.84-0.65 4.14-1.93 8.64-3.6 12.39-0.78 1.84-1.4 3.26-1.75 4.57-1.49 6.31 0.74 13.1 4.14 18.64 3.64 5.91 9.94 10.56 17.39 12.82-17.16 0.82-33.07-15.57-31.87-33.1 0.5-4.41 1.85-7.7 2.42-11.64 0.62-4.81 0.86-9.36-0.81-14-2.03-5.59-3.36-12.53-3.84-18.4-0.54-7.75-0.78-15.63-1.08-23.36 0 0-0.21-5.81-0.21-5.81-0.23-4.14 0.33-8.15-2.33-11.17-2.25-2.72-5.5-4.86-9.02-4.28-3.35 0.77-8.02 3.48-11.31 5.02-3.31 1.62-6.41 3.32-9.5 5.21 0 0 2.98-3.68 2.98-3.68-1.24 2.81-3.89 8.83-5.11 11.59-4.01 0.07-8.54 0.19-12.53 0.23l4.29-1.78c-5.84 4.74-12.84 8.27-20.4 9.39-3.31 0.58-6.72 0.26-9.71 0.53-2.44 0.27-5.09 1.03-7.76 2.24-6.15 2.91-13.11 4.67-19.96 4.93-1.61 0.07-3.27-0.13-4.81-0.1-4.61 0.1-8.96 2.33-12.69 5.02z"/>
  <path class="b" d="m743.08 130.43c1.16-3.08 4.93-3.34 6.74-0.58 2.42 3.82 2.62 8.33 3.25 12.59 0.2 1.87 0.52 4.22 0.63 6.05 0.14 1.45 0.2 4.22 0.52 5.42 0.16 0.59 0.29 0.55 0.53 0.83 0.25 0.28 0.71 0.75 1.16 1.09 1.67 1.28 3.01 1.44 4.72 0.61l5.18-2.43c2.89 6.51 5.91 13.52 7.73 20.4 2.87 10.43 4.28 21.26 6.16 31.73 0.05 0.16 0.01 0 0-0.03 0.59 0.75 0.88 0.98 2.02 1.69 6.64 3.4 10.96 9.83 10.2 17.64 0 0.22 0.03 0.29 0.15 0.63 0.19 0.46 0.29 0.64 0.36 0.75 0.08 0.14 0.45 0.46 1.77 1.54 3.63 2.94 6.14 7.64 6.72 12.3 0.25 2.54 0.5 4.31 1.4 6.64 0.58 1.61 1.35 3.14 2.19 4.65 5.53 11.3 8.06 23.65 10.97 35.44 3.13 13.64 5.76 27.25 7.99 41.04 0.57 3.42 0.89 6.63 1.77 9.91 2.73 9.9 7.14 19.96 6.78 30.47-1.69-9.3-6.29-17.04-10.36-25.46-2.18-4.18-3.54-8.96-4.82-13.41-6.81-21.58-13.11-43.99-21.79-64.8-1.36-3.19-2.78-5.64-4.51-8.43-2.4-4.14-4.19-9.02-4.76-13.78-0.14-0.69-0.39-1.13-0.8-1.72-0.25-0.29-0.23-0.28-0.78-0.71-5.75-3.81-8.85-10.53-8.38-16.93-0.09-0.16-0.21-0.39-0.39-0.52-1.5-1-4.5-2.53-6.29-4.37-2.19-2.06-4.19-4.94-5-7.89-0.64-2.21-0.87-4.28-1.16-6.28l-1.82-13.56c-1.22-8.96-2.6-17.3-5-25.93l8.06 4.18c-9.28 2.44-19.67-5.14-19.72-14.69 0.07-2.41 0.55-4.21 0.86-6.38 0.59-3.63 1.17-7.84 1.48-11.46 0.08-1.84 0.31-4.01-0.49-5.56-0.7-0.81-1.78-0.5-3.27-0.71z"/>
  <path class="a" d="m62.84 255.31 32.45 100.67 32.07-100.67h33.62l-50.14 137.98h-31.29l-50.52-137.98z"/>
  <path class="a" d="m206.65 395.23c-8.68 0-16.39-1.38-23.13-4.13s-12.47-6.5-17.2-11.24-8.33-10.22-10.79-16.43-3.69-12.71-3.69-19.5c0-9.67 2.17-18.48 6.51-26.43s10.59-14.38 18.75-19.27 18.01-7.35 29.54-7.35 21.34 2.42 29.44 7.27 14.28 11.19 18.56 19.04 6.41 16.36 6.41 25.54c0 1.79-0.1 3.54-0.29 5.26s-0.36 3.22-0.49 4.49h-75.4c0.39 4.41 1.65 8.13 3.79 11.15s4.89 5.32 8.26 6.9 6.93 2.36 10.69 2.36c4.66 0 9.04-1.1 13.12-3.3s6.9-5.18 8.45-8.94l26.43 7.38c-2.59 5.31-6.25 10.01-10.98 14.09s-10.3 7.29-16.71 9.62-13.51 3.5-21.28 3.5zm-22.54-61.8h44.31c-0.52-4.08-1.75-7.63-3.69-10.66s-4.54-5.37-7.77-7.04c-3.24-1.67-6.8-2.51-10.69-2.51s-7.61 0.83-10.79 2.51c-3.18 1.67-5.73 4.02-7.68 7.04-1.94 3.03-3.18 6.58-3.69 10.66z"/>
  <path class="a" d="m339.97 317.88c-7.52 0-14.32 1.2-20.41 3.6s-10.49 5.93-13.21 10.59v61.22h-31.09v-100.86h28.57v19.43c3.5-6.87 8.03-12.24 13.6-16.13s11.4-5.89 17.49-6.02h3.21c0.71 0 1.33 0.07 1.85 0.19v27.98z"/>
  <path class="a" d="m347.54 322.94c0-8.42 1.55-16.68 4.66-24.78s7.64-15.45 13.6-22.06 13.21-11.88 21.77-15.84c8.55-3.95 18.27-5.93 29.15-5.93 12.95 0 24.19 2.79 33.72 8.36 9.52 5.57 16.62 12.83 21.28 21.77l-24.49 17.1c-2.07-4.92-4.83-8.75-8.26-11.47s-7.19-4.63-11.27-5.73-8-1.65-11.76-1.65c-6.09 0-11.4 1.2-15.94 3.6s-8.29 5.61-11.27 9.62c-2.98 4.02-5.18 8.49-6.61 13.41-1.43 4.93-2.14 9.85-2.14 14.77 0 5.44 0.84 10.69 2.53 15.74 1.68 5.05 4.11 9.52 7.29 13.41 3.17 3.89 7.03 6.97 11.56 9.23 4.53 2.27 9.52 3.4 14.96 3.4 3.89 0 7.84-0.65 11.85-1.94s7.74-3.33 11.17-6.12c3.43-2.78 6.06-6.44 7.87-10.98l26.04 15.35c-2.72 6.74-7.19 12.5-13.41 17.3-6.22 4.79-13.25 8.45-21.09 10.98s-15.58 3.79-23.22 3.79c-9.98 0-19.14-2.04-27.5-6.12s-15.55-9.52-21.57-16.32-10.69-14.44-13.99-22.93c-3.3-8.48-4.96-17.13-4.96-25.94z"/>
  <path class="a" d="m534.5 395.23c-8.68 0-16.42-1.41-23.22-4.21-6.8-2.81-12.53-6.64-17.2-11.49-4.66-4.85-8.2-10.4-10.59-16.66-2.4-6.26-3.6-12.83-3.6-19.72s1.2-13.66 3.6-19.92 5.93-11.81 10.59-16.66 10.4-8.68 17.2-11.49 14.54-4.21 23.22-4.21 16.39 1.41 23.13 4.21c6.73 2.81 12.44 6.64 17.1 11.49s8.23 10.4 10.69 16.66c2.46 6.25 3.69 12.9 3.69 19.92s-1.23 13.47-3.69 19.72c-2.46 6.26-6.02 11.81-10.69 16.66-4.66 4.85-10.37 8.68-17.1 11.49-6.74 2.81-14.45 4.21-23.13 4.21zm-22.74-52.08c0 5.16 1 9.69 3.01 13.59s4.69 6.92 8.06 9.05c3.37 2.14 7.25 3.21 11.66 3.21s8.13-1.1 11.56-3.3 6.12-5.25 8.06-9.15 2.92-8.36 2.92-13.39-0.97-9.68-2.92-13.58-4.63-6.92-8.06-9.06-7.29-3.21-11.56-3.21-8.29 1.07-11.66 3.21-6.06 5.16-8.06 9.06c-2.01 3.9-3.01 8.43-3.01 13.58z"/>
  <path class="a" d="m669.17 317.88c-7.52 0-14.32 1.2-20.41 3.6s-10.49 5.93-13.21 10.59v61.22h-31.09v-100.86h28.57v19.43c3.5-6.87 8.03-12.24 13.6-16.13s11.4-5.89 17.49-6.02h3.21c0.71 0 1.33 0.07 1.85 0.19v27.98z"/>
  <path class="a" d="m721.25 395.23c-8.68 0-17.17-1.43-25.46-4.28s-15.29-7.06-20.99-12.63l10.69-19.63c6.22 4.54 12.27 7.97 18.17 10.3 5.89 2.33 11.43 3.5 16.62 3.5 4.01 0 7.12-0.61 9.33-1.83 2.2-1.22 3.3-3.12 3.3-5.68 0-1.91-0.65-3.41-1.94-4.5-1.3-1.08-3.27-2.07-5.93-2.97-2.66-0.89-5.93-1.85-9.81-2.87-7.77-2.55-14.25-5.04-19.43-7.47-5.18-2.42-9.07-5.39-11.66-8.9s-3.89-8.07-3.89-13.69c0-6.77 1.72-12.67 5.15-17.71s8.32-8.97 14.67-11.78 13.93-4.21 22.74-4.21c7 0 13.83 1.1 20.5 3.3s12.92 5.9 18.75 11.08l-12.05 19.43c-5.83-4.01-11.01-6.93-15.55-8.75-4.54-1.81-8.94-2.72-13.21-2.72-2.21 0-4.21 0.25-6.02 0.76-1.82 0.51-3.27 1.37-4.37 2.58s-1.65 2.77-1.65 4.67 0.55 3.43 1.65 4.58 2.85 2.13 5.25 2.95c2.4 0.83 5.41 1.81 9.04 2.96 8.42 2.42 15.42 4.86 20.99 7.34s9.75 5.53 12.54 9.16c2.78 3.63 4.18 8.42 4.18 14.4 0 10.17-3.73 18.15-11.17 23.93-7.45 5.79-17.59 8.68-30.41 8.68z"/>
 </g>
</svg>
